# xmcd
#
# Track frame offsets: 
#        150
#        13450
#        29645
#        45670
#        62875
#        79845
#        91912
#        106607
#        125467
#        142767
#        160842
#        178282
#
# Disc length: 2567 seconds
#
# Revision: 0
# Processed by: cddbd v1.4PL0 Copyright (c) Steve Scherf et al.
# Submitted via: ExactAudioCopy v0.95a3
#
DISCID=9d0a050c
DTITLE=Chely Wright - The Best Of... (20th Century Masters The Milleni
DTITLE=um Collection)
DYEAR=2003
DGENRE=Country
TTITLE0=Til I Was Loved By You
TTITLE1=Sea Of Cowboy Hats
TTITLE2=Listenin' To The Radio
TTITLE3=Shut Up And Drive
TTITLE4=I Already Do
TTITLE5=Just Another Heartache
TTITLE6=Single White Female
TTITLE7=She Went Out For Cigarettes
TTITLE8=It Was
TTITLE9=The Love That We Lost
TTITLE10=Never Love You Enough
TTITLE11=Jezebel
EXTD=
EXTT0=
EXTT1=
EXTT2=
EXTT3=
EXTT4=
EXTT5=
EXTT6=
EXTT7=
EXTT8=
EXTT9=
EXTT10=
EXTT11=
PLAYORDER=
